<?xml version="1.0" encoding="utf-8"?>
<!-- Generator: Adobe Illustrator 17.0.0, SVG Export Plug-In . SVG Version: 6.00 Build 0)  -->
<!DOCTYPE svg PUBLIC "-//W3C//DTD SVG 1.1//EN" "http://www.w3.org/Graphics/SVG/1.1/DTD/svg11.dtd">
<svg version="1.1" id="Layer_1" xmlns="http://www.w3.org/2000/svg" xmlns:xlink="http://www.w3.org/1999/xlink" x="0px" y="0px"
	 width="999.747px" height="624.842px" viewBox="0 0 999.747 624.842" enable-background="new 0 0 999.747 624.842"
	 xml:space="preserve">
<g id="Right_Arrow">
</g>
<g>
	<g>
		
			<polyline fill="none" stroke="#FFFFFF" stroke-width="16" stroke-linecap="round" stroke-linejoin="round" stroke-miterlimit="10" points="
			36.581,38 963.581,38 963.581,590 35.581,590 35.581,39 		"/>
		<path fill="none" stroke="#FFFFFF" stroke-width="16" stroke-linecap="round" stroke-linejoin="round" stroke-miterlimit="10" d="
			M36.361,141.92c0,0,6.959-46.44,46.759-46.44c40.469,0,59.462,10.196,89.462,10.196c31,0,47-59.322,0-59.322
			c-58,0-15.234,216.733-15.234,216.733s11.384,44.435-29.24,44.435S92.31,265.426,92.31,265.426"/>
		<path fill="none" stroke="#FFFFFF" stroke-width="16" stroke-linecap="round" stroke-linejoin="round" stroke-miterlimit="10" d="
			M222.368,144.649c3.28-1.814-33.906,12.893-33.906,59.966c0,14.143,2.96,79.4,33.906,65.757
			c43.356-19.114,26.022-98.832,14.765-130.399s12.324,120.08,53.114,103.456c41.399-16.872,31.501-200.498,2.272-200.498
			c-47.936,0,41.085,182.763,41.085,182.763"/>
		<path fill="none" stroke="#FFFFFF" stroke-width="16" stroke-linecap="round" stroke-linejoin="round" stroke-miterlimit="10" d="
			M354.095,96.712c0,0,15.726,54.836-37.54,79.446c0,0,37.539-31.849,64.86,6.392c7.362,10.304,13.633,14.679,26.237,9.123
			c11.734-5.173,52.435-71.37,49.812-103.493c-2.036-24.937-26.46-23.898-42.57,6.762c-10.994,20.925,0.266,102.909,49.966,80.998
			c37.617-16.584,40.333-61.05,40.333-61.05"/>
		
			<line fill="none" stroke="#FFFFFF" stroke-width="16" stroke-linecap="round" stroke-linejoin="round" stroke-miterlimit="10" x1="36.581" y1="356.639" x2="803.838" y2="39.033"/>
		<path fill="none" stroke="#FFFFFF" stroke-width="16" stroke-linecap="round" stroke-linejoin="round" stroke-miterlimit="10" d="
			M103.305,339.737c3.398-1.58-34.724,10.493-38.013,57.45c-0.988,14.109-2.595,79.413,29.229,67.965
			c44.586-16.038,32.864-96.772,23.84-129.049s5.798,124.67,45.756,106.135"/>
		
			<line fill="none" stroke="#FFFFFF" stroke-width="16" stroke-linecap="round" stroke-linejoin="round" stroke-miterlimit="10" x1="36.581" y1="501.625" x2="202.979" y2="432.744"/>
		
			<line fill="none" stroke="#FFFFFF" stroke-width="16" stroke-linecap="round" stroke-linejoin="round" stroke-miterlimit="10" x1="165.088" y1="307.523" x2="267.964" y2="588.879"/>
		<path fill="none" stroke="#FFFFFF" stroke-width="16" stroke-linecap="round" stroke-linejoin="round" stroke-miterlimit="10" d="
			M192.467,382.281c0,0-11.522-83.535,13.976-94.889c34.037-15.156,117.642,301.488,117.642,301.488s-97.27-310.988-56.122-328.021
			c43.465-17.993,142.91,328.021,142.91,328.021s-126.301-334.896-67.537-359.221c35.144-14.548,97.05,238.204,119.881,320.695
			c3.588,12.962,12.997,38.526,37.55,38.526"/>
		<path fill="none" stroke="#FFFFFF" stroke-width="16" stroke-linecap="round" stroke-linejoin="round" stroke-miterlimit="10" d="
			M963.289,165.869c0,0,4.793,118.131-25.601,127.249C880.132,310.385,814.735,38.354,814.735,38.354s78.637,276.783,50.273,287.159
			c-8.291,3.033-14.194-6.553-16.828-12.271c-18-39.08-50.056-170.618-86.085-146.72c-36.029,23.898,20.585,195.018,20.585,195.018
			c-62.589-223.79-71.396-176.67-65.927-140.013c6.308,42.281,28.189,133.297-12.301,156.569
			c-35.818,20.587-73.595-57.261-70.193-117.166c3.085-54.323,42.227-39.764,46.002-0.511
			c5.627,58.522-16.382,107.784-19.163,115.794c-2.781,8.01-5.19,14.33-16.004,17.573c-8.856,2.656-16.79-11.217-23.838-28.171
			c-12.849-30.909-42.864-107.323-60.567-100.826c-17.612,6.464,35.067,148.481,35.067,148.481s-54.1-135.695-67.49-128.575
			c-16.183,8.604,32.127,142.738,32.127,142.738C501.174,254.7,489.61,304.825,491.206,316.466
			c2.172,15.85,23.949,55.348-1.178,65.127c-31.1,12.104-66.583-44.32-26.282-51.315c44.471-7.718,81.618,116.574,42.078,133.234
			c-26.774,11.281-41.206-10.462-46.703-21.851c-6.88-14.254-20.943-38.559-22.005-75.588"/>
		
			<line fill="none" stroke="#FFFFFF" stroke-width="16" stroke-linecap="round" stroke-linejoin="round" stroke-miterlimit="10" x1="803.838" y1="129.591" x2="899.321" y2="86.19"/>
	</g>
</g>
</svg>
